<svg width="18" height="16" viewBox="0 0 18 16" fill="none" xmlns="http://www.w3.org/2000/svg">
<path d="M17.9695 14.8576L15.6217 7.81443C15.5418 7.57477 15.3176 7.41309 15.0649 7.41309H12.0051C12.5218 6.59715 13.1085 5.83914 13.1085 4.47842C13.1085 2.21298 11.2654 0.369873 8.99995 0.369873C6.73448 0.369873 4.89148 2.21298 4.89148 4.47842C4.89148 5.84723 5.48527 6.6098 6.00375 7.41309H2.93503C2.68236 7.41309 2.45813 7.57477 2.37822 7.81443L0.0304836 14.8576C-0.0959737 15.2371 0.186789 15.6301 0.587289 15.6301H17.4127C17.8127 15.6301 18.0961 15.2375 17.9695 14.8576ZM8.99998 1.54374C10.6182 1.54374 11.9347 2.86024 11.9347 4.47842C11.9347 5.03578 11.7779 5.5779 11.4814 6.04607L9.02354 9.92673L6.53229 6.06731C6.22682 5.59421 6.06538 5.04475 6.06538 4.47842C6.06531 2.86021 7.38181 1.54374 8.99998 1.54374ZM1.40162 14.4563V14.4563L3.35806 8.58696H6.76148L8.53511 11.3346C8.76739 11.6945 9.29484 11.6924 9.5241 11.3304L11.2616 8.58703H14.6419L16.5984 14.4563H1.40162V14.4563Z" fill="#2586EE"/>
</svg>
