<svg width="18" height="18" viewBox="0 0 18 18" fill="none" xmlns="http://www.w3.org/2000/svg">
<path d="M9 0C4.02571 0 0 4.02528 0 9C0 13.9743 4.02528 18 9 18C13.9743 18 18 13.9747 18 9C18 4.02571 13.9747 0 9 0ZM15.6551 9.52734H16.9274C16.8092 11.3219 16.0928 12.9555 14.9759 14.2301L14.4303 13.6846C14.2244 13.4786 13.8905 13.4787 13.6846 13.6846C13.4786 13.8905 13.4786 14.2244 13.6846 14.4303L14.2301 14.9759C12.9555 16.0928 11.3219 16.8092 9.52734 16.9274V16.0067C9.52734 15.7155 9.29123 15.4794 9 15.4794C8.70877 15.4794 8.47266 15.7155 8.47266 16.0067V16.9274C6.67811 16.8092 5.04454 16.0928 3.76991 14.9759L4.31543 14.4303C4.52138 14.2244 4.52138 13.8905 4.31543 13.6846C4.10952 13.4787 3.77561 13.4787 3.56966 13.6846L3.02414 14.2301C1.90719 12.9555 1.19081 11.3219 1.07262 9.52734H1.99329C2.28452 9.52734 2.52063 9.29123 2.52063 9C2.52063 8.70877 2.28452 8.47266 1.99329 8.47266H1.07262C1.19081 6.67811 1.90719 5.04454 3.02411 3.76991L3.56963 4.31543C3.77557 4.52138 4.10945 4.52138 4.31539 4.31543C4.5213 4.10952 4.5213 3.77561 4.31539 3.56966L3.76988 3.02414C5.0445 1.90719 6.67811 1.19081 8.47266 1.07262V1.99329C8.47266 2.28452 8.70877 2.52063 9 2.52063C9.29123 2.52063 9.52734 2.28452 9.52734 1.99329V1.07262C11.3219 1.19081 12.9555 1.90719 14.2301 3.02411L13.6846 3.56966C13.4786 3.77561 13.4786 4.10948 13.6846 4.31543C13.8904 4.52138 14.2244 4.52141 14.4303 4.31543L14.9759 3.76988C16.0928 5.0445 16.8092 6.67811 16.9274 8.47266H15.6551C15.3639 8.47266 15.1278 8.70877 15.1278 9C15.1278 9.29123 15.3639 9.52734 15.6551 9.52734Z" fill="#2586EE"/>
<path d="M12.3276 8.47278H9.52734V4.10278C9.52734 3.81155 9.29123 3.57544 9 3.57544C8.70877 3.57544 8.47266 3.81155 8.47266 4.10278V9.00012C8.47266 9.29135 8.70877 9.52746 9 9.52746H12.3276C12.6188 9.52746 12.8549 9.29135 12.8549 9.00012C12.8549 8.70888 12.6188 8.47278 12.3276 8.47278Z" fill="#2586EE"/>
</svg>
