<svg width="12" height="18" viewBox="0 0 12 18" fill="none" xmlns="http://www.w3.org/2000/svg">
<path d="M6 16.344C6.33805 16.344 6.61208 16.07 6.61208 15.732C6.61208 15.3939 6.33805 15.1199 6 15.1199C5.66196 15.1199 5.38792 15.3939 5.38792 15.732C5.38792 16.07 5.66196 16.344 6 16.344Z" fill="#2586EE"/>
<path d="M9.53079 0H2.46919C1.44335 0 0.608871 0.83456 0.608871 1.86032V16.1397C0.608871 17.1654 1.44343 18 2.46919 18H9.53087C10.5566 18 11.3912 17.1654 11.3912 16.1397V1.86032C11.3911 0.83456 10.5566 0 9.53079 0ZM1.80887 3.64024H10.1911V13.6319H1.80887V3.64024ZM2.46919 1.2H9.53087C9.89495 1.2 10.1912 1.49624 10.1912 1.86032V2.44024H1.80887V1.86032C1.80887 1.49624 2.10503 1.2 2.46919 1.2ZM9.53079 16.8H2.46919C2.10511 16.8 1.80887 16.5038 1.80887 16.1397V14.8318H10.1911V16.1397C10.1911 16.5038 9.89495 16.8 9.53079 16.8Z" fill="#2586EE"/>
</svg>
