<svg width="121" height="91" viewBox="0 0 121 91" fill="none" xmlns="http://www.w3.org/2000/svg">
<path d="M0 88.7358H0.562114V85.608H2.72262V88.7358H3.28474V85.1383H0V88.7358Z" fill="#2C2C2C"/>
<path d="M6.23554 85.0384C5.62371 85.0384 5.16102 85.2616 4.85893 85.6346V85.1383H4.35418V90.3347H4.92011V88.3061C5.21838 88.6359 5.6543 88.8357 6.21259 88.8357C7.37124 88.8357 8.04425 88.013 8.04425 86.9337C8.04425 85.8611 7.36741 85.0384 6.23554 85.0384ZM6.15523 88.3794C5.27574 88.3794 4.85893 87.7665 4.85893 86.9337C4.85893 86.0876 5.28338 85.4947 6.14376 85.4947C7.03091 85.4947 7.44772 86.121 7.44772 86.9337C7.44772 87.7531 7.01561 88.3794 6.15523 88.3794Z" fill="#2C2C2C"/>
<path d="M10.6085 88.8357C11.8322 88.8357 12.5664 88.0663 12.5664 86.9337C12.5664 85.8212 11.8475 85.0384 10.6085 85.0384C9.40018 85.0384 8.65452 85.8012 8.65452 86.9337C8.65452 88.0496 9.37723 88.8357 10.6085 88.8357ZM10.6085 88.3661C9.71374 88.3661 9.25105 87.7998 9.25105 86.9337C9.25105 86.0943 9.68315 85.5081 10.6085 85.5081C11.5186 85.5081 11.9698 86.0677 11.9698 86.9337C11.9698 87.7831 11.5263 88.3661 10.6085 88.3661Z" fill="#2C2C2C"/>
<path d="M16.6908 85.1383H16.2205L13.9529 87.9164V85.1383H13.4061V88.7358H13.8802L16.144 85.9344V88.7358H16.6908V85.1383Z" fill="#2C2C2C"/>
<path d="M20.2496 86.8571C20.5326 86.6706 20.6894 86.4108 20.6894 86.0743C20.6894 85.4214 20.0622 85.0384 19.2669 85.0384C18.5939 85.0384 18.0356 85.2516 17.6226 85.6446L17.982 85.9744C18.2803 85.7012 18.7353 85.5047 19.2248 85.5047C19.7104 85.5047 20.112 85.6979 20.112 86.1076C20.112 86.4974 19.7334 86.6672 19.1598 86.6672H18.678V87.0869H19.1675C19.871 87.0869 20.2229 87.2402 20.2229 87.6799C20.2229 88.1062 19.8252 88.3661 19.2172 88.3661C18.6359 88.3661 18.1847 88.1296 17.8826 87.6865L17.4314 87.9364C17.787 88.5026 18.418 88.8357 19.2516 88.8357C20.1234 88.8357 20.7964 88.4127 20.7964 87.7265C20.7964 87.3801 20.6205 87.017 20.2496 86.8571Z" fill="#2C2C2C"/>
<path d="M21.6364 88.7358H23.5599C23.7664 88.7358 24.0226 88.7291 24.2252 88.6792C24.6803 88.5659 24.9709 88.2495 24.9709 87.7565C24.9709 87.3934 24.8103 87.1402 24.5197 86.987C24.4317 86.9404 24.3361 86.9071 24.2558 86.8937C24.3438 86.8604 24.4394 86.8005 24.5158 86.7272C24.6764 86.5806 24.772 86.3808 24.772 86.121C24.772 85.6579 24.4623 85.3115 23.9996 85.2016C23.7855 85.155 23.5102 85.1383 23.3381 85.1383H21.6364V88.7358ZM22.2024 86.7272V85.558H23.2807C23.3381 85.558 23.5943 85.558 23.7778 85.6146C24.0455 85.6913 24.1832 85.8978 24.1832 86.1476C24.1832 86.3808 24.0608 86.594 23.7969 86.6739C23.6708 86.7139 23.4872 86.7272 23.3572 86.7272H22.2024ZM22.2024 88.3194V87.1469H23.4528C23.5522 87.1469 23.6937 87.1469 23.8084 87.1702C24.1564 87.2169 24.3897 87.4267 24.3897 87.7432C24.3897 87.983 24.2558 88.2095 23.9537 88.2761C23.8237 88.3061 23.6402 88.3194 23.5331 88.3194H22.2024Z" fill="#2C2C2C"/>
<path d="M27.4576 88.8357C28.6813 88.8357 29.4155 88.0663 29.4155 86.9337C29.4155 85.8212 28.6966 85.0384 27.4576 85.0384C26.2493 85.0384 25.5036 85.8012 25.5036 86.9337C25.5036 88.0496 26.2263 88.8357 27.4576 88.8357ZM27.4576 88.3661C26.5628 88.3661 26.1001 87.7998 26.1001 86.9337C26.1001 86.0943 26.5322 85.5081 27.4576 85.5081C28.3677 85.5081 28.8189 86.0677 28.8189 86.9337C28.8189 87.7831 28.3754 88.3661 27.4576 88.3661Z" fill="#2C2C2C"/>
<path d="M29.9531 89.5352H30.4922V88.7358H33.5284V89.5352H34.0714V88.3161H33.6737V85.1383H30.9435C30.8861 86.2742 30.8364 86.9171 30.7064 87.4833C30.5802 88.0663 30.4196 88.3161 29.9531 88.3161V89.5352ZM30.9052 88.3161C31.0811 88.1695 31.1538 87.9463 31.2303 87.6266C31.3641 87.1336 31.4253 86.2342 31.4635 85.558H33.1155V88.3161H30.9052Z" fill="#2C2C2C"/>
<path d="M36.401 88.8357C37.2193 88.8357 37.8235 88.4926 38.1332 87.8531L37.5673 87.7065C37.3608 88.1395 36.9593 88.3661 36.401 88.3661C35.5138 88.3661 35.0664 87.7998 35.0549 86.9371C35.0664 86.0976 35.487 85.5081 36.401 85.5081C36.9401 85.5081 37.3875 85.7579 37.5826 86.1876L38.1332 86.0343C37.9038 85.4181 37.2384 85.0384 36.4048 85.0384C35.1697 85.0384 34.4737 85.8045 34.4584 86.9371C34.4737 88.0463 35.1505 88.8357 36.401 88.8357Z" fill="#2C2C2C"/>
<path d="M39.9384 88.7358H40.5005V85.5913H41.965V85.1383H38.4738V85.5913H39.9384V88.7358Z" fill="#2C2C2C"/>
<path d="M42.6903 88.7358H44.6138C44.8202 88.7358 45.0765 88.7291 45.2791 88.6792C45.7342 88.5659 46.0248 88.2495 46.0248 87.7565C46.0248 87.3934 45.8642 87.1402 45.5736 86.987C45.4856 86.9404 45.39 86.9071 45.3097 86.8937C45.3977 86.8604 45.4933 86.8005 45.5697 86.7272C45.7303 86.5806 45.8259 86.3808 45.8259 86.121C45.8259 85.6579 45.5162 85.3115 45.0535 85.2016C44.8394 85.155 44.564 85.1383 44.392 85.1383H42.6903V88.7358ZM43.2563 86.7272V85.558H44.3346C44.392 85.558 44.6482 85.558 44.8317 85.6146C45.0994 85.6913 45.2371 85.8978 45.2371 86.1476C45.2371 86.3808 45.1147 86.594 44.8508 86.6739C44.7246 86.7139 44.5411 86.7272 44.4111 86.7272H43.2563ZM43.2563 88.3194V87.1469H44.5067C44.6061 87.1469 44.7476 87.1469 44.8623 87.1702C45.2103 87.2169 45.4435 87.4267 45.4435 87.7432C45.4435 87.983 45.3097 88.2095 45.0076 88.2761C44.8776 88.3061 44.6941 88.3194 44.587 88.3194H43.2563Z" fill="#2C2C2C"/>
<path d="M48.5115 88.8357C49.7352 88.8357 50.4694 88.0663 50.4694 86.9337C50.4694 85.8212 49.7505 85.0384 48.5115 85.0384C47.3032 85.0384 46.5575 85.8012 46.5575 86.9337C46.5575 88.0496 47.2802 88.8357 48.5115 88.8357ZM48.5115 88.3661C47.6167 88.3661 47.154 87.7998 47.154 86.9337C47.154 86.0943 47.5861 85.5081 48.5115 85.5081C49.4216 85.5081 49.8728 86.0677 49.8728 86.9337C49.8728 87.7831 49.4292 88.3661 48.5115 88.3661Z" fill="#2C2C2C"/>
<path d="M52.8401 88.7358H53.4022V87.1702H55.731V88.7358H56.2931V85.1383H55.731V86.7006H53.4022V85.1383H52.8401V88.7358Z" fill="#2C2C2C"/>
<path d="M60.4942 85.7579C60.2762 85.2915 59.7256 85.0384 58.9723 85.0384C58.0622 85.0384 57.481 85.4115 57.2898 86.0543L57.8366 86.1942C57.9934 85.7146 58.3987 85.5014 58.9646 85.5014C59.7485 85.5014 60.0583 85.8145 60.0659 86.464C59.5153 86.5307 58.7429 86.6073 58.1846 86.7239C57.5689 86.8671 57.133 87.1802 57.133 87.7698C57.133 88.3427 57.6072 88.8357 58.544 88.8357C59.2476 88.8357 59.7944 88.5959 60.1156 88.1395V88.7358H60.6166V86.5007C60.6166 86.2342 60.5936 85.9677 60.4942 85.7579ZM58.609 88.4127C57.9437 88.4127 57.6951 88.0829 57.6951 87.7698C57.6951 87.3801 58.0584 87.2069 58.4102 87.1169C58.8652 87.007 59.5153 86.9504 60.0583 86.8937C60.0583 87.057 60.0506 87.2901 60.0047 87.4667C59.8977 88.0096 59.3967 88.4127 58.609 88.4127Z" fill="#2C2C2C"/>
<path d="M63.4896 85.0384C62.8778 85.0384 62.4151 85.2616 62.113 85.6346V85.1383H61.6082V90.3347H62.1742V88.3061C62.4724 88.6359 62.9083 88.8357 63.4666 88.8357C64.6253 88.8357 65.2983 88.013 65.2983 86.9337C65.2983 85.8611 64.6215 85.0384 63.4896 85.0384ZM63.4093 88.3794C62.5298 88.3794 62.113 87.7665 62.113 86.9337C62.113 86.0876 62.5374 85.4947 63.3978 85.4947C64.285 85.4947 64.7018 86.121 64.7018 86.9337C64.7018 87.7531 64.2697 88.3794 63.4093 88.3794Z" fill="#2C2C2C"/>
<path d="M68.7839 85.1383L67.5296 88.0962L66.176 85.1383H65.5795L67.2582 88.7291L66.5775 90.3347H67.1396L69.3575 85.1383H68.7839Z" fill="#2C2C2C"/>
<path d="M69.5628 88.7358H70.2167L71.8992 86.9604V88.7358H72.4192V86.9604L74.0979 88.7358H74.7518L73.0081 86.9371L74.6792 85.1383H74.0482L72.4192 86.9137V85.1383H71.8992V86.9137L70.2702 85.1383H69.6354L71.3065 86.9371L69.5628 88.7358Z" fill="#2C2C2C"/>
<path d="M75.3578 88.7358H75.92V87.1702H78.2487V88.7358H78.8108V85.1383H78.2487V86.7006H75.92V85.1383H75.3578V88.7358Z" fill="#2C2C2C"/>
<path d="M81.6047 88.8357C82.8284 88.8357 83.5626 88.0663 83.5626 86.9337C83.5626 85.8212 82.8437 85.0384 81.6047 85.0384C80.3964 85.0384 79.6507 85.8012 79.6507 86.9337C79.6507 88.0496 80.3734 88.8357 81.6047 88.8357ZM81.6047 88.3661C80.7099 88.3661 80.2473 87.7998 80.2473 86.9337C80.2473 86.0943 80.6794 85.5081 81.6047 85.5081C82.5148 85.5081 82.966 86.0677 82.966 86.9337C82.966 87.7831 82.5225 88.3661 81.6047 88.3661Z" fill="#2C2C2C"/>
<path d="M86.1192 84.7119C86.666 84.7119 87.1058 84.3289 87.1058 83.8525H86.6393C86.6393 84.1024 86.4098 84.3056 86.1192 84.3056C85.8324 84.3056 85.5992 84.1024 85.5992 83.8525H85.1327C85.1327 84.3289 85.5724 84.7119 86.1192 84.7119ZM87.687 85.1383H87.2167L84.9491 87.9164V85.1383H84.4023V88.7358H84.8764L87.1402 85.9344V88.7358H87.687V85.1383Z" fill="#2C2C2C"/>
<path d="M92.1689 85.0384C91.5571 85.0384 91.0944 85.2616 90.7923 85.6346V85.1383H90.2875V90.3347H90.8535V88.3061C91.1517 88.6359 91.5876 88.8357 92.1459 88.8357C93.3046 88.8357 93.9776 88.013 93.9776 86.9337C93.9776 85.8611 93.3008 85.0384 92.1689 85.0384ZM92.0886 88.3794C91.2091 88.3794 90.7923 87.7665 90.7923 86.9337C90.7923 86.0876 91.2167 85.4947 92.0771 85.4947C92.9642 85.4947 93.3811 86.121 93.3811 86.9337C93.3811 87.7531 92.949 88.3794 92.0886 88.3794Z" fill="#2C2C2C"/>
<path d="M95.1882 87.0736H98.4424C98.4844 85.8045 97.7655 85.0384 96.5419 85.0384C95.3488 85.0384 94.5879 85.7745 94.5879 86.9537C94.5879 88.0929 95.3603 88.8357 96.5648 88.8357C97.364 88.8357 98.0332 88.4793 98.3621 87.8497L97.8382 87.6732C97.582 88.1229 97.1308 88.3661 96.5419 88.3661C95.7197 88.3661 95.2341 87.8964 95.1882 87.0736ZM96.5572 85.4881C97.3258 85.4881 97.7655 85.8878 97.8535 86.6639H95.1997C95.2876 85.9078 95.7618 85.4881 96.5572 85.4881Z" fill="#2C2C2C"/>
<path d="M99.2871 88.7358H99.8569V87.0037L101.884 88.7358H102.702L100.515 86.9371L102.45 85.1383H101.7L99.8569 86.8704V85.1383H99.291L99.2871 88.7358Z" fill="#2C2C2C"/>
<path d="M102.628 88.7358C103.408 88.869 103.622 88.6325 103.756 88.0396C103.875 87.5166 103.978 86.5473 104.054 85.608H105.783V88.7358H106.341V85.1383H103.534C103.454 86.2808 103.377 87.1236 103.251 87.7731C103.175 88.1662 103.091 88.3794 102.628 88.3061V88.7358Z" fill="#2C2C2C"/>
<path d="M110.541 85.7579C110.323 85.2915 109.772 85.0384 109.019 85.0384C108.109 85.0384 107.528 85.4115 107.337 86.0543L107.883 86.1942C108.04 85.7146 108.446 85.5014 109.012 85.5014C109.795 85.5014 110.105 85.8145 110.113 86.464C109.562 86.5307 108.79 86.6073 108.231 86.7239C107.616 86.8671 107.18 87.1802 107.18 87.7698C107.18 88.3427 107.654 88.8357 108.591 88.8357C109.294 88.8357 109.841 88.5959 110.163 88.1395V88.7358H110.663V86.5007C110.663 86.2342 110.64 85.9677 110.541 85.7579ZM108.656 88.4127C107.991 88.4127 107.742 88.0829 107.742 87.7698C107.742 87.3801 108.105 87.2069 108.457 87.1169C108.912 87.007 109.562 86.9504 110.105 86.8937C110.105 87.057 110.097 87.2901 110.052 87.4667C109.945 88.0096 109.444 88.4127 108.656 88.4127Z" fill="#2C2C2C"/>
<path d="M111.655 88.7358H112.202V86.1842L113.59 88.7358H113.946L115.334 86.1842V88.7358H115.877V85.1383H115.38L113.766 88.0829L112.156 85.1383H111.655V88.7358Z" fill="#2C2C2C"/>
<path d="M116.95 88.7358H118.277C118.511 88.7358 118.771 88.7291 118.977 88.6892C119.535 88.5826 119.945 88.2328 119.945 87.6132C119.945 86.9404 119.497 86.6339 118.889 86.5273C118.706 86.5007 118.465 86.494 118.228 86.494H117.509V85.1383H116.943L116.95 88.7358ZM120.438 88.7358H121V85.1383H120.438V88.7358ZM117.509 88.3161V86.9137H118.254C118.419 86.9137 118.61 86.9204 118.774 86.9504C119.13 87.017 119.363 87.2102 119.363 87.6132C119.363 88.0263 119.096 88.2062 118.824 88.2728C118.66 88.3128 118.423 88.3161 118.254 88.3161H117.509Z" fill="#2C2C2C"/>
<rect y="76.29" width="121" height="3.24107" fill="#2586EE"/>
<path d="M0 72.8526V59.1026H7.31023C9.04786 59.1026 10.3443 59.5151 11.1995 60.3401C11.8104 60.9294 12.1158 61.6824 12.1158 62.599C12.1158 64.0264 11.3828 65.0478 9.91667 65.6633C10.8398 65.9514 11.5389 66.3639 12.014 66.9008C12.5027 67.4377 12.7471 68.158 12.7471 69.0615C12.7471 70.2401 12.272 71.1699 11.3217 71.8508C10.3714 72.5187 9.04786 72.8526 7.35096 72.8526H0ZM3.84856 69.7883H6.90298C8.16547 69.7883 8.79671 69.3562 8.79671 68.4919C8.79671 67.6669 8.15189 67.2544 6.86225 67.2544H3.84856V69.7883ZM3.84856 64.583H6.33282C7.58174 64.583 8.20619 64.1705 8.20619 63.3455C8.20619 62.5598 7.60889 62.1669 6.41427 62.1669H3.84856V64.583Z" fill="#2586EE"/>
<path d="M15.0653 72.8526V59.1026H21.1741C22.9932 59.1026 24.4321 59.5348 25.491 60.399C26.5634 61.2502 27.0997 62.4419 27.0997 63.974C27.0997 65.5455 26.5363 66.7633 25.4095 67.6276C24.2828 68.4919 22.8031 68.924 20.9705 68.924H19.0156V72.8526H15.0653ZM19.0156 65.9383H20.889C21.5949 65.9383 22.1447 65.7746 22.5384 65.4473C22.9457 65.1199 23.1493 64.6746 23.1493 64.1115C23.1493 63.5223 22.9457 63.077 22.5384 62.7758C22.1447 62.4615 21.5881 62.3044 20.8687 62.3044H19.0156V65.9383Z" fill="#2586EE"/>
<path d="M29.2755 72.8526V59.1026H40.7397V62.3437H33.1851V64.4258H40.027V67.4312H33.1851V69.6115H40.8415V72.8526H29.2755Z" fill="#2586EE"/>
<path d="M43.3663 72.8526V59.1026H47.3167V64.6812L52.2241 59.1026H56.9076L51.5114 65.0151L57.0908 72.8526H52.3463L48.7625 67.7455L47.3167 69.2973V72.8526H43.3663Z" fill="#2586EE"/>
<path d="M73.4105 72.8526L79.4786 59.0044H83.2864L89.3545 72.8526H85.1191L84.0806 70.3973H78.5826L77.5645 72.8526H73.4105ZM79.7433 67.4312H82.9403L81.352 63.5223L79.7433 67.4312Z" fill="#2586EE"/>
<path d="M91.2467 72.8526V59.1026H95.421L98.8216 64.4258L102.222 59.1026H106.397V72.8526H102.467V64.9562L98.8216 70.3383H98.7402L95.1156 64.9955V72.8526H91.2467Z" fill="#2586EE"/>
<path d="M109.434 72.8526V59.1026H120.898V62.3437H113.344V64.4258H120.185V67.4312H113.344V69.6115H121V72.8526H109.434Z" fill="#2586EE"/>
<path d="M71.3036 73.049V59.0044H62.1205L62.6607 62.2455H64.2812H67.5223V73.049H71.3036Z" fill="#2586EE"/>
<rect y="52.5222" width="121" height="3.24107" fill="#2586EE"/>
<path d="M30.25 19.5713H24.8482L41.0536 48.2008H41.5937H46.4553L30.25 19.5713Z" fill="#2586EE"/>
<path d="M37.8125 19.5713H32.4107L48.6161 48.2008H49.1562H54.0178L37.8125 19.5713Z" fill="#2586EE"/>
<path d="M45.375 19.5713H39.9732L56.1786 48.2008H56.7187H61.5803L45.375 19.5713Z" fill="#2586EE"/>
<path d="M52.9375 19.5713H47.5357L63.7411 48.2008H64.2812H69.1428L52.9375 19.5713Z" fill="#2586EE"/>
<path d="M68.0625 0.665039H73.4643L59 26.5L56 22L68.0625 0.665039Z" fill="#2586EE"/>
<path d="M75.9715 0.665039H81.3733L62.1205 32.5356L59.6133 28.2141L75.9715 0.665039Z" fill="#2586EE"/>
<path d="M83.3403 0.665039H88.7421L65.9018 39.0177L63.3945 34.6963L83.3403 0.665039Z" fill="#2586EE"/>
<path d="M91.2493 0.665039H96.6511L70.0295 46.04L67.5223 41.7186L91.2493 0.665039Z" fill="#2586EE"/>
<path d="M57.7991 70.8883L55.6384 67.6473L62.1205 59.0044L64.2812 62.2455L57.7991 70.8883Z" fill="#2586EE"/>
</svg>
