<svg width="81" height="54" viewBox="0 0 81 54" fill="none" xmlns="http://www.w3.org/2000/svg">
<path d="M1 23.3476L19.6229 53.1443L22.7268 20.8645L1 23.3476Z" stroke="#2586EE" stroke-width="1.5" stroke-linejoin="round"/>
<path d="M66.801 1L1 23.3475L19.6229 53.1442L66.801 1Z" stroke="#2586EE" stroke-width="1.5" stroke-linejoin="round"/>
<path d="M67.0945 1L72.8797 3.67009L66.872 5.22765L61.7543 2.78006L67.0945 1Z" fill="white" stroke="#2586EE" stroke-width="1.5" stroke-linejoin="round"/>
<path d="M54.6342 30.3711L61.7544 2.78015L66.8721 5.22774L58.8618 35.2663L54.6342 30.3711Z" fill="white" stroke="#2586EE" stroke-width="1.5" stroke-linejoin="round"/>
<path d="M75.5499 27.0333L72.4348 24.8082" stroke="#2586EE" stroke-width="1.5"/>
<path d="M72.4349 19.6906L68.8748 17.0205" stroke="#2586EE"/>
<path d="M72.8797 3.66992L66.872 5.22748L58.8617 35.266L65.0919 32.5959L66.6495 27.2557L74.2148 23.9181L75.5498 27.0332L80 24.8082L72.8797 3.66992Z" fill="white" stroke="#FFA748" stroke-width="1.5" stroke-linejoin="round"/>
<path d="M67.5396 21.9158L70.2096 12.5704L73.1022 19.6907L67.5396 21.9158Z" stroke="#FFA748" stroke-width="1.5" stroke-linejoin="round"/>
<path d="M47.7266 9.93896L53.5118 12.6091L47.5041 14.1666L42.3864 11.719L47.7266 9.93896Z" stroke="#2586EE" stroke-width="1.5" stroke-linejoin="round"/>
<path d="M35.2662 39.3101L42.3865 11.7191L47.5042 14.1667L39.4939 44.2052L35.2662 39.3101Z" fill="white" stroke="#2586EE" stroke-width="1.5" stroke-linejoin="round"/>
<path d="M56.1819 35.9723L53.0668 33.7472" stroke="#2586EE" stroke-width="1.5"/>
<path d="M53.067 28.6296L49.5068 25.9595" stroke="#2586EE"/>
<path d="M53.5118 12.6089L47.5041 14.1664L39.4938 44.205L45.7241 41.5349L47.2816 36.1947L54.8469 32.8571L56.1819 35.9722L60.6321 33.7471L53.5118 12.6089Z" fill="white" stroke="#FFA748" stroke-width="1.5" stroke-linejoin="round"/>
<path d="M48.1716 30.8547L50.8417 21.5094L53.7343 28.6296L48.1716 30.8547Z" stroke="#FFA748" stroke-width="1.5" stroke-linejoin="round"/>
<path d="M28.3587 18.8781L34.1439 21.5481L28.1362 23.1057L23.0185 20.6581L28.3587 18.8781Z" stroke="#2586EE" stroke-width="1.5" stroke-linejoin="round"/>
<path d="M15.8984 48.2492L23.0186 20.6582L28.1363 23.1058L20.126 53.1443L15.8984 48.2492Z" fill="white" stroke="#2586EE" stroke-width="1.5" stroke-linejoin="round"/>
<path d="M36.8141 44.9114L33.699 42.6863" stroke="#2586EE" stroke-width="1.5"/>
<path d="M33.6991 37.5687L30.139 34.8986" stroke="#2586EE"/>
<path d="M34.144 21.548L28.1363 23.1055L20.126 53.1441L26.3562 50.474L27.9137 45.1338L35.479 41.7962L36.8141 44.9113L41.2642 42.6862L34.144 21.548Z" fill="white" stroke="#FFA748" stroke-width="1.5" stroke-linejoin="round"/>
<path d="M28.8038 39.7938L31.4739 30.4485L34.3665 37.5687L28.8038 39.7938Z" stroke="#FFA748" stroke-width="1.5" stroke-linejoin="round"/>
</svg>
