<svg width="64" height="64" viewBox="0 0 64 64" fill="none" xmlns="http://www.w3.org/2000/svg">
<g clip-path="url(#clip0)">
<path d="M63.965 56.8689C63.958 56.8229 63.967 56.7789 63.954 56.7329L62.006 49.8649V43.9959C62.006 43.7669 61.916 43.5649 61.786 43.3959C61.779 43.3869 61.774 43.3759 61.766 43.3679C61.711 43.3019 61.648 43.2479 61.578 43.1969C61.548 43.1749 61.517 43.1539 61.485 43.1339C61.423 43.0999 61.361 43.0729 61.292 43.0529C61.266 43.0439 61.245 43.0279 61.218 43.0219L31.22 36.0209C31.07 35.9859 30.915 35.9859 30.765 36.0209L0.779965 43.0219C0.327965 43.1269 0.00796509 43.5309 0.00796509 43.9959C0.00796509 44.4609 0.327965 44.8639 0.779965 44.9699L14.004 48.0559V59.8899C14.001 59.9229 13.984 59.9529 13.984 59.9869C13.984 62.2009 15.786 64.0029 18 64.0029C18.024 64.0029 18.044 63.9909 18.067 63.9889H43.938C43.961 63.9909 43.981 64.0029 44.005 64.0029C46.219 64.0029 48.021 62.2009 48.021 59.9869C48.021 59.9389 48 59.8969 47.994 59.8509V48.0549L60.006 45.2519V49.8629L58.046 56.7309C58.032 56.7779 58.041 56.8239 58.035 56.8719C58.028 56.9179 58.008 56.9579 58.008 57.0059C58.008 57.0269 58.019 57.0439 58.02 57.0649C58.025 57.1359 58.042 57.2019 58.061 57.2689C58.078 57.3289 58.09 57.3869 58.118 57.4409C58.146 57.4999 58.185 57.5469 58.224 57.5989C58.262 57.6499 58.297 57.7009 58.345 57.7439C58.391 57.7849 58.445 57.8139 58.498 57.8469C58.557 57.8829 58.613 57.9169 58.679 57.9409C58.699 57.9479 58.713 57.9629 58.734 57.9689C58.825 57.9939 58.916 58.0059 59.006 58.0069H59.008H62.992H62.994C63.084 58.0059 63.175 57.9949 63.265 57.9689C63.286 57.9629 63.299 57.9479 63.319 57.9419C63.387 57.9179 63.445 57.8819 63.506 57.8459C63.558 57.8139 63.61 57.7849 63.654 57.7449C63.703 57.7019 63.739 57.6499 63.778 57.5989C63.816 57.5479 63.855 57.4999 63.882 57.4439C63.909 57.3879 63.923 57.3289 63.94 57.2679C63.959 57.2019 63.976 57.1379 63.98 57.0689C63.982 57.0479 63.993 57.0289 63.993 57.0069C63.992 56.9569 63.972 56.9159 63.965 56.8689ZM61.003 53.6579L61.669 56.0059H60.333L61.003 53.6579ZM46.012 60.0839C45.96 61.1389 45.1 61.9819 44.037 61.9989C44.018 61.9979 44.003 61.9879 43.984 61.9879H18C17.984 61.9879 17.971 61.9969 17.955 61.9969C16.89 61.9739 16.03 61.1199 15.992 60.0589C15.993 60.0379 16.004 60.0199 16.004 59.9979V48.5219L30.765 51.9669C30.84 51.9849 30.916 51.9929 30.993 51.9929C31.07 51.9929 31.145 51.9839 31.221 51.9669L45.995 48.5209V59.9979C45.994 60.0279 46.009 60.0549 46.012 60.0839ZM30.992 49.9669L5.40597 43.9959L30.992 38.0209L56.59 43.9959L30.992 49.9669Z" fill="#2586EE"/>
<path d="M43.008 58.0081H19.008C18.455 58.0081 18.008 58.4551 18.008 59.0081C18.008 59.5611 18.455 60.0081 19.008 60.0081H43.008C43.561 60.0081 44.008 59.5611 44.008 59.0081C44.008 58.4551 43.561 58.0081 43.008 58.0081Z" fill="#2586EE"/>
<path d="M43.021 29.02C46.231 25.81 48 21.541 48 16.999C48 12.457 46.231 8.18805 43.021 4.97805C39.811 1.76705 35.542 -0.00195312 31 -0.00195312C26.458 -0.00195312 22.189 1.76705 18.979 4.97805C15.768 8.18805 14 12.457 14 16.999C14 21.541 15.769 25.811 18.98 29.02C22.19 32.231 26.459 33.999 31.001 33.999C35.542 33.999 39.811 32.23 43.021 29.02ZM15.999 16.999C15.999 12.991 17.56 9.22505 20.393 6.39305C23.226 3.55905 26.993 1.99805 31 1.99805C35.007 1.99805 38.774 3.55905 41.607 6.39305C44.439 9.22505 46 12.991 46 16.999C46 21.007 44.439 24.773 41.607 27.605C38.774 30.438 35.007 31.999 31 31.999C26.993 31.999 23.227 30.438 20.394 27.605C17.56 24.773 15.999 21.007 15.999 16.999Z" fill="#FFA748"/>
<path d="M30.292 21.947L35.944 27.599C36.139 27.794 36.395 27.892 36.651 27.892C36.907 27.892 37.163 27.794 37.358 27.599L41.6 23.357C41.991 22.966 41.991 22.334 41.6 21.943L39.481 19.824C39.48 19.823 39.48 19.822 39.479 19.821C39.478 19.82 39.477 19.82 39.476 19.819L37.364 17.707C37.362 17.705 37.362 17.703 37.36 17.701C37.358 17.699 37.356 17.699 37.354 17.697L35.948 16.291L38.771 13.468C38.785 13.454 38.792 13.433 38.805 13.418C38.857 13.36 38.898 13.295 38.936 13.225C38.952 13.196 38.975 13.172 38.988 13.142C38.993 13.13 38.994 13.119 38.998 13.107C39.002 13.096 39.01 13.087 39.014 13.077L40.43 8.83499C40.443 8.79699 40.436 8.75899 40.444 8.72099C40.459 8.65399 40.469 8.58899 40.469 8.51999C40.469 8.44999 40.458 8.38399 40.444 8.31699C40.436 8.27899 40.443 8.24099 40.43 8.20299C40.422 8.18099 40.405 8.16499 40.396 8.14199C40.37 8.07899 40.335 8.02599 40.297 7.96899C40.26 7.91299 40.225 7.85999 40.18 7.81499C40.139 7.77399 40.092 7.74399 40.044 7.71099C39.983 7.66799 39.924 7.62999 39.855 7.60199C39.834 7.59399 39.82 7.57699 39.798 7.56999C39.762 7.55699 39.726 7.56399 39.689 7.55599C39.62 7.54099 39.554 7.52999 39.482 7.52999C39.412 7.52999 39.346 7.54099 39.278 7.55499C39.24 7.56299 39.203 7.55599 39.165 7.56899L34.921 8.98199C34.91 8.98599 34.903 8.99499 34.893 8.99899C34.88 9.00299 34.868 9.00399 34.856 9.00899C34.799 9.03199 34.755 9.07399 34.705 9.10699C34.655 9.13999 34.601 9.16699 34.558 9.20699C34.55 9.21499 34.538 9.21899 34.531 9.22699L31.708 12.05L26.056 6.39799C25.665 6.00699 25.033 6.00699 24.642 6.39799L20.4 10.64C20.009 11.031 20.009 11.663 20.4 12.054L26.052 17.706L21.105 22.653C20.324 23.434 20.324 24.706 21.105 25.487L22.517 26.899C22.528 26.91 22.542 26.913 22.553 26.923C22.939 27.291 23.435 27.48 23.933 27.48C24.445 27.48 24.957 27.285 25.347 26.895L27.464 24.778C27.466 24.776 27.468 24.776 27.47 24.774C27.472 24.772 27.472 24.77 27.474 24.768L30.292 21.947ZM26.76 22.651L25.347 21.236L26.053 20.53L27.466 21.945L26.76 22.651ZM23.931 25.48C23.926 25.475 23.918 25.473 23.913 25.468L22.518 24.073C22.516 24.071 22.516 24.069 22.514 24.067C22.514 24.067 22.515 24.066 22.516 24.065L23.932 22.649L25.345 24.064L23.931 25.48ZM27.467 19.116L34.238 12.345V12.759C34.238 13.312 34.685 13.759 35.238 13.759H35.652L28.881 20.53L27.467 19.116ZM37.346 11.76H36.238V10.653L37.9 10.099L37.346 11.76ZM35.238 18.409C34.848 18.8 34.848 19.431 35.239 19.822C35.434 20.017 35.69 20.115 35.946 20.115C36.202 20.115 36.457 20.017 36.652 19.823L37.358 20.529L36.652 21.236C36.262 21.628 36.262 22.26 36.653 22.651C36.848 22.845 37.104 22.943 37.36 22.943C37.616 22.943 37.873 22.845 38.068 22.65L38.773 21.944L39.479 22.65L36.651 25.478L31.706 20.533L34.534 17.705L35.238 18.409ZM22.519 11.346L25.347 8.51799L26.054 9.22499C25.663 9.61599 25.663 10.248 26.054 10.639C26.249 10.834 26.505 10.932 26.761 10.932C27.017 10.932 27.273 10.834 27.468 10.639L28.175 11.346L27.468 12.053C27.077 12.444 27.077 13.076 27.468 13.467C27.663 13.662 27.919 13.76 28.175 13.76C28.431 13.76 28.687 13.662 28.882 13.467L29.589 12.76L30.292 13.463L27.464 16.291L22.519 11.346Z" fill="#FFA748"/>
</g>
<defs>
<clipPath id="clip0">
<rect width="64" height="64" fill="white"/>
</clipPath>
</defs>
</svg>
