<svg width="64" height="60" viewBox="0 0 64 60" fill="none" xmlns="http://www.w3.org/2000/svg">
<path d="M56.999 14.5C56.446 14.5 55.999 14.052 55.999 13.5C55.999 12.948 56.446 12.5 56.999 12.5C59.756 12.5 61.999 10.257 61.999 7.5C61.999 4.743 59.756 2.5 56.999 2.5C56.446 2.5 55.999 2.052 55.999 1.5C55.999 0.948 56.446 0.5 56.999 0.5C60.858 0.5 63.999 3.64 63.999 7.5C63.999 11.36 60.858 14.5 56.999 14.5Z" fill="#2586EE"/>
<path d="M56.999 56.498C56.446 56.498 55.999 56.051 55.999 55.498C55.999 54.945 56.446 54.498 56.999 54.498C59.756 54.498 61.999 52.255 61.999 49.498C61.999 48.945 62.446 48.498 62.999 48.498C63.552 48.498 63.999 48.945 63.999 49.498C63.999 53.357 60.858 56.498 56.999 56.498Z" fill="#2586EE"/>
<path d="M56.499 11.501C53.467 11.501 50.999 9.03398 50.999 6.00098C50.999 2.96798 53.467 0.500977 56.499 0.500977C57.052 0.500977 57.499 0.948977 57.499 1.50098C57.499 2.05298 57.052 2.50098 56.499 2.50098C54.569 2.50098 52.999 4.07098 52.999 6.00098C52.999 7.93098 54.569 9.50098 56.499 9.50098C57.052 9.50098 57.499 9.94898 57.499 10.501C57.499 11.053 57.052 11.501 56.499 11.501Z" fill="#2586EE"/>
<path d="M56.499 53.498C53.467 53.498 50.999 51.03 50.999 47.998C50.999 47.445 51.446 46.998 51.999 46.998C52.552 46.998 52.999 47.445 52.999 47.998C52.999 49.928 54.569 51.498 56.499 51.498C57.052 51.498 57.499 51.945 57.499 52.498C57.499 53.051 57.052 53.498 56.499 53.498Z" fill="#2586EE"/>
<path d="M56.4989 8.50498C55.1189 8.50498 53.9969 7.38198 53.9969 6.00298C53.9969 4.62398 55.1189 3.50098 56.4989 3.50098C57.0519 3.50098 57.4989 3.94898 57.4989 4.50098C57.4989 5.05298 57.0519 5.50098 56.4989 5.50098C56.2229 5.50098 55.9969 5.72598 55.9969 6.00298C55.9969 6.27998 56.2229 6.50498 56.4989 6.50498C57.0519 6.50498 57.4989 6.95298 57.4989 7.50498C57.4989 8.05698 57.0519 8.50498 56.4989 8.50498Z" fill="#2586EE"/>
<path d="M56.999 11.5C56.446 11.5 55.999 11.052 55.999 10.5C55.999 9.948 56.446 9.5 56.999 9.5C58.102 9.5 58.999 8.603 58.999 7.5C58.999 6.397 58.102 5.5 56.999 5.5C56.446 5.5 55.999 5.052 55.999 4.5C55.999 3.948 56.446 3.5 56.999 3.5C59.205 3.5 60.999 5.294 60.999 7.5C60.999 9.706 59.205 11.5 56.999 11.5Z" fill="#2586EE"/>
<path d="M56.999 56.498C56.446 56.498 55.999 56.051 55.999 55.498V13.5C55.999 12.948 56.446 12.5 56.999 12.5C57.552 12.5 57.999 12.948 57.999 13.5V55.498C57.999 56.051 57.552 56.498 56.999 56.498Z" fill="#2586EE"/>
<path d="M62.999 50.498C62.446 50.498 61.999 50.051 61.999 49.498V7.5C61.999 6.948 62.446 6.5 62.999 6.5C63.552 6.5 63.999 6.948 63.999 7.5V49.498C63.999 50.051 63.552 50.498 62.999 50.498Z" fill="#2586EE"/>
<path d="M56.9969 11.5009C56.4439 11.5009 55.9969 11.0529 55.9969 10.5009V7.50488C55.9969 6.95288 56.4439 6.50488 56.9969 6.50488C57.5499 6.50488 57.9969 6.95288 57.9969 7.50488V10.5009C57.9969 11.0529 57.5499 11.5009 56.9969 11.5009Z" fill="#2586EE"/>
<path d="M56.997 8.50488H56.499C55.946 8.50488 55.499 8.05688 55.499 7.50488C55.499 6.95288 55.946 6.50488 56.499 6.50488H56.997C57.55 6.50488 57.997 6.95288 57.997 7.50488C57.997 8.05688 57.55 8.50488 56.997 8.50488Z" fill="#2586EE"/>
<path d="M56.999 11.5H56.499C55.946 11.5 55.499 11.052 55.499 10.5C55.499 9.948 55.946 9.5 56.499 9.5H56.999C57.552 9.5 57.999 9.948 57.999 10.5C57.999 11.052 57.552 11.5 56.999 11.5Z" fill="#2586EE"/>
<path d="M56.999 5.50098H56.499C55.946 5.50098 55.499 5.05298 55.499 4.50098C55.499 3.94898 55.946 3.50098 56.499 3.50098H56.999C57.552 3.50098 57.999 3.94898 57.999 4.50098C57.999 5.05298 57.552 5.50098 56.999 5.50098Z" fill="#2586EE"/>
<path d="M51.999 48.998C51.446 48.998 50.999 48.551 50.999 47.998V6.00098C50.999 5.44898 51.446 5.00098 51.999 5.00098C52.552 5.00098 52.999 5.44898 52.999 6.00098V47.998C52.999 48.551 52.552 48.998 51.999 48.998Z" fill="#2586EE"/>
<path d="M43.999 18.4951C43.446 18.4951 42.999 18.0471 42.999 17.4951C42.999 16.9431 43.446 16.4951 43.999 16.4951C45.653 16.4951 46.999 15.1491 46.999 13.4951C46.999 11.8411 45.653 10.4951 43.999 10.4951C43.446 10.4951 42.999 10.0471 42.999 9.49512C42.999 8.94312 43.446 8.49512 43.999 8.49512C46.756 8.49512 48.999 10.7381 48.999 13.4951C48.999 16.2521 46.756 18.4951 43.999 18.4951Z" fill="#2586EE"/>
<path d="M43.999 56.5C43.446 56.5 42.999 56.053 42.999 55.5C42.999 54.947 43.446 54.5 43.999 54.5C45.653 54.5 46.999 53.154 46.999 51.5C46.999 50.947 47.446 50.5 47.999 50.5C48.552 50.5 48.999 50.947 48.999 51.5C48.999 54.257 46.756 56.5 43.999 56.5Z" fill="#2586EE"/>
<path d="M43.999 56.5001C43.446 56.5001 42.999 56.0531 42.999 55.5001V17.4951C42.999 16.9431 43.446 16.4951 43.999 16.4951C44.552 16.4951 44.999 16.9431 44.999 17.4951V55.5001C44.999 56.0531 44.552 56.5001 43.999 56.5001Z" fill="#2586EE"/>
<path d="M47.999 52.5001C47.446 52.5001 46.999 52.0531 46.999 51.5001V13.4951C46.999 12.9431 47.446 12.4951 47.999 12.4951C48.552 12.4951 48.999 12.9431 48.999 13.4951V51.5001C48.999 52.0531 48.552 52.5001 47.999 52.5001Z" fill="#2586EE"/>
<path d="M43.999 10.49H4.98096C4.42796 10.49 3.98096 10.042 3.98096 9.48999C3.98096 8.93799 4.42796 8.48999 4.98096 8.48999H43.999C44.552 8.48999 44.999 8.93799 44.999 9.48999C44.999 10.042 44.552 10.49 43.999 10.49Z" fill="#2586EE"/>
<path d="M43.999 48.4961H33.003C32.45 48.4961 32.003 48.0491 32.003 47.4961C32.003 46.9431 32.45 46.4961 33.003 46.4961H43.999C44.552 46.4961 44.999 46.9431 44.999 47.4961C44.999 48.0491 44.552 48.4961 43.999 48.4961Z" fill="#2586EE"/>
<path d="M5.00098 48.51C2.24398 48.51 0.000976562 46.267 0.000976562 43.51C0.000976562 42.957 0.447977 42.51 1.00098 42.51C1.55398 42.51 2.00098 42.957 2.00098 43.51C2.00098 45.164 3.34698 46.51 5.00098 46.51C5.55398 46.51 6.00098 46.957 6.00098 47.51C6.00098 48.063 5.55398 48.51 5.00098 48.51Z" fill="#2586EE"/>
<path d="M1.00098 6.50244C0.447977 6.50244 0.000976562 6.05444 0.000976562 5.50244C0.000976562 2.74544 2.24398 0.502441 5.00098 0.502441C5.55398 0.502441 6.00098 0.950441 6.00098 1.50244C6.00098 2.05444 5.55398 2.50244 5.00098 2.50244C3.34698 2.50244 2.00098 3.84844 2.00098 5.50244C2.00098 6.05444 1.55398 6.50244 1.00098 6.50244Z" fill="#2586EE"/>
<path d="M5.00098 10.506C4.44798 10.506 4.00098 10.058 4.00098 9.50595V1.50195C4.00098 0.949953 4.44798 0.501953 5.00098 0.501953C5.55398 0.501953 6.00098 0.949953 6.00098 1.50195V9.50595C6.00098 10.058 5.55398 10.506 5.00098 10.506Z" fill="#2586EE"/>
<path d="M1.00098 44.51C0.447976 44.51 0.000976562 44.063 0.000976562 43.51V5.50195C0.000976562 4.94995 0.447976 4.50195 1.00098 4.50195C1.55398 4.50195 2.00098 4.94995 2.00098 5.50195V43.51C2.00098 44.063 1.55398 44.51 1.00098 44.51Z" fill="#2586EE"/>
<path d="M5.00498 10.506C2.24598 10.506 0.000976562 8.26095 0.000976562 5.50195C0.000976562 4.94995 0.447977 4.50195 1.00098 4.50195C1.55398 4.50195 2.00098 4.94995 2.00098 5.50195C2.00098 7.15795 3.34898 8.50595 5.00498 8.50595C5.55798 8.50595 6.00498 8.95395 6.00498 9.50595C6.00498 10.058 5.55798 10.506 5.00498 10.506Z" fill="#2586EE"/>
<path d="M10.993 48.51H5.00098C4.44798 48.51 4.00098 48.063 4.00098 47.51C4.00098 46.957 4.44798 46.51 5.00098 46.51H10.993C11.546 46.51 11.993 46.957 11.993 47.51C11.993 48.063 11.546 48.51 10.993 48.51Z" fill="#2586EE"/>
<path d="M29.476 48.5081H14.515C13.962 48.5081 13.515 48.0611 13.515 47.5081C13.515 46.9551 13.962 46.5081 14.515 46.5081H29.476C30.029 46.5081 30.476 46.9551 30.476 47.5081C30.476 48.0611 30.028 48.5081 29.476 48.5081Z" fill="#2586EE"/>
<path d="M56.999 2.5H56.499C55.946 2.5 55.499 2.052 55.499 1.5C55.499 0.948 55.946 0.5 56.499 0.5H56.999C57.552 0.5 57.999 0.948 57.999 1.5C57.999 2.052 57.552 2.5 56.999 2.5Z" fill="#2586EE"/>
<path d="M22 31.4931C18.691 31.4931 16 28.8021 16 25.4951C16 22.1871 18.691 19.4951 22 19.4951C25.309 19.4951 28 22.1861 28 25.4951C28 28.8021 25.309 31.4931 22 31.4931ZM22 21.4961C19.794 21.4961 18 23.2901 18 25.4961C18 27.7001 19.794 29.4941 22 29.4941C24.206 29.4941 26 27.7011 26 25.4961C26 23.2901 24.206 21.4961 22 21.4961Z" fill="#FFA748"/>
<path d="M22 28.4931C20.346 28.4931 19 27.1481 19 25.4951C19 23.8411 20.346 22.4951 22 22.4951C23.654 22.4951 25 23.8411 25 25.4951C25 27.1481 23.654 28.4931 22 28.4931ZM22 24.4951C21.448 24.4951 21 24.9441 21 25.4951C21 26.0451 21.448 26.4931 22 26.4931C22.552 26.4931 23 26.0451 23 25.4951C23 24.9441 22.552 24.4951 22 24.4951Z" fill="#FFA748"/>
<path d="M23.501 17C22.948 17 22.501 16.552 22.501 16C22.501 15.724 22.276 15.499 22 15.499C21.724 15.499 21.499 15.723 21.499 16C21.499 16.552 21.052 17 20.499 17C19.946 17 19.499 16.552 19.499 16C19.499 14.621 20.621 13.499 22 13.499C23.379 13.499 24.501 14.621 24.501 16C24.501 16.552 24.054 17 23.501 17Z" fill="#FFA748"/>
<path d="M33.004 56.5181C32.619 56.5181 32.252 56.2951 32.088 55.9201L21.085 30.8971C20.862 30.3921 21.092 29.8021 21.598 29.5791C22.105 29.3551 22.694 29.5871 22.915 30.0921L33.918 55.1151C34.141 55.6211 33.911 56.2111 33.405 56.4321C33.274 56.4901 33.138 56.5181 33.004 56.5181Z" fill="#FFA748"/>
<path d="M33.003 59.5C32.45 59.5 32.003 59.053 32.003 58.5V47.51C32.003 46.957 32.45 46.51 33.003 46.51C33.556 46.51 34.003 46.957 34.003 47.51V58.5C34.003 59.053 33.556 59.5 33.003 59.5Z" fill="#FFA748"/>
<path d="M10.992 56.5181C10.858 56.5181 10.721 56.4911 10.591 56.4331C10.085 56.2111 9.85598 55.6211 10.078 55.1161L21.081 30.0931C21.303 29.5881 21.891 29.3561 22.398 29.5801C22.904 29.8031 23.133 30.3931 22.911 30.8981L11.908 55.9201C11.744 56.2951 11.377 56.5181 10.992 56.5181Z" fill="#FFA748"/>
<path d="M33.004 48.51C32.619 48.51 32.252 48.287 32.088 47.912L24.145 29.8501C23.922 29.3451 24.152 28.7551 24.658 28.5321C25.166 28.3091 25.755 28.5401 25.975 29.0451L33.918 47.1081C34.141 47.6131 33.911 48.204 33.405 48.425C33.274 48.482 33.138 48.51 33.004 48.51Z" fill="#FFA748"/>
<path d="M10.992 48.5101C10.858 48.5101 10.721 48.4831 10.591 48.4251C10.085 48.2031 9.85598 47.6121 10.078 47.1081L18.023 29.0421C18.245 28.5371 18.834 28.3061 19.34 28.5291C19.846 28.7521 20.075 29.3421 19.853 29.8471L11.908 47.9131C11.744 48.2871 11.377 48.5101 10.992 48.5101Z" fill="#FFA748"/>
<path d="M10.993 59.5C10.44 59.5 9.99298 59.053 9.99298 58.5V47.51C9.99298 46.957 10.44 46.51 10.993 46.51C11.546 46.51 11.993 46.957 11.993 47.51V58.5C11.993 59.053 11.546 59.5 10.993 59.5Z" fill="#FFA748"/>
<path d="M23.501 21.725C22.948 21.725 22.501 21.277 22.501 20.725V15.998C22.501 15.446 22.948 14.998 23.501 14.998C24.054 14.998 24.501 15.446 24.501 15.998V20.725C24.501 21.277 24.054 21.725 23.501 21.725Z" fill="#FFA748"/>
<path d="M20.499 21.725C19.946 21.725 19.499 21.277 19.499 20.725V15.998C19.499 15.446 19.946 14.998 20.499 14.998C21.052 14.998 21.499 15.446 21.499 15.998V20.725C21.499 21.277 21.052 21.725 20.499 21.725Z" fill="#FFA748"/>
<path d="M27.281 43.502H16.756C16.203 43.502 15.756 43.055 15.756 42.502C15.756 41.949 16.203 41.502 16.756 41.502H27.281C27.834 41.502 28.281 41.949 28.281 42.502C28.281 43.055 27.834 43.502 27.281 43.502Z" fill="#FFA748"/>
<path d="M33.001 43.502H30.802C30.249 43.502 29.802 43.055 29.802 42.502C29.802 41.949 30.249 41.502 30.802 41.502H33.001C33.554 41.502 34.001 41.949 34.001 42.502C34.001 43.055 33.554 43.502 33.001 43.502Z" fill="#FFA748"/>
<path d="M13.194 43.5061H10.999C10.446 43.5061 9.99896 43.0591 9.99896 42.5061C9.99896 41.9531 10.446 41.5061 10.999 41.5061H13.194C13.747 41.5061 14.194 41.9531 14.194 42.5061C14.194 43.0591 13.747 43.5061 13.194 43.5061Z" fill="#FFA748"/>
</svg>
