<svg width="64" height="64" viewBox="0 0 64 64" fill="none" xmlns="http://www.w3.org/2000/svg">
<g clip-path="url(#clip0)">
<path d="M63 1.49707H59C58.447 1.49707 58 1.94407 58 2.49707V6.49707C58 7.05007 58.447 7.49707 59 7.49707H59.976C59.479 21.4351 48.655 32.9811 34.772 34.3531C34.321 33.2641 33.25 32.4961 32.001 32.4961C30.751 32.4961 29.68 33.2651 29.23 34.3531C15.347 32.9841 4.52101 21.4371 4.02401 7.49707H5.00101C5.55401 7.49707 6.00101 7.05007 6.00101 6.49707V2.49707C6.00101 1.94407 5.55401 1.49707 5.00101 1.49707H1.00101C0.448007 1.49707 0.00100708 1.94407 0.00100708 2.49707V6.49707C0.00100708 7.05007 0.448007 7.49707 1.00101 7.49707H2.02401C2.43101 19.7291 10.259 30.2551 21.242 34.4961H14.815C14.401 33.3351 13.301 32.4961 12 32.4961C10.346 32.4961 9.00001 33.8421 9.00001 35.4961C9.00001 37.1501 10.346 38.4961 12 38.4961C13.302 38.4961 14.401 37.6571 14.815 36.4961H29.184C29.598 37.6571 30.698 38.4961 31.999 38.4961C33.3 38.4961 34.4 37.6571 34.814 36.4961H49.183C49.597 37.6571 50.697 38.4961 51.998 38.4961C53.652 38.4961 54.998 37.1501 54.998 35.4961C54.998 33.8421 53.652 32.4961 51.998 32.4961C50.696 32.4961 49.597 33.3351 49.183 34.4961H42.752C53.736 30.2551 61.566 19.7281 61.974 7.49707H63C63.553 7.49707 64 7.05007 64 6.49707V2.49707C64 1.94407 63.553 1.49707 63 1.49707ZM2.00101 3.49707H4.00101V5.49707H2.00101V3.49707ZM12 36.4961C11.448 36.4961 11 36.0481 11 35.4961C11 34.9441 11.448 34.4961 12 34.4961C12.552 34.4961 13 34.9441 13 35.4961C13 36.0481 12.552 36.4961 12 36.4961ZM32 36.4961C31.45 36.4961 31.004 36.0511 31.001 35.5011C31.001 35.5001 31.002 35.4991 31.002 35.4981C31.002 35.4961 31.001 35.4931 31.001 35.4911C31.004 34.9411 31.45 34.4961 32 34.4961C32.545 34.4961 32.984 34.9341 32.996 35.4761C32.996 35.4841 32.992 35.4901 32.993 35.4971C32.993 35.5021 32.996 35.5061 32.997 35.5111C32.988 36.0561 32.546 36.4961 32 36.4961ZM52 34.4961C52.552 34.4961 53 34.9441 53 35.4961C53 36.0481 52.552 36.4961 52 36.4961C51.448 36.4961 51 36.0481 51 35.4961C51 34.9441 51.448 34.4961 52 34.4961ZM62 5.49707H60V3.49707H62V5.49707Z" fill="#2586EE"/>
<path d="M38.987 50.4341C38.983 50.3711 38.968 50.3121 38.952 50.2501C38.934 50.1841 38.916 50.1211 38.885 50.0611C38.873 50.0371 38.873 50.0091 38.859 49.9861L32.858 39.9821C32.85 39.9691 32.837 39.9621 32.829 39.9501C32.807 39.9161 32.779 39.8871 32.753 39.8561C32.719 39.8151 32.683 39.7801 32.643 39.7451C32.612 39.7191 32.582 39.6911 32.548 39.6691C32.535 39.6601 32.528 39.6481 32.516 39.6401C32.495 39.6281 32.473 39.6281 32.453 39.6181C32.409 39.5961 32.364 39.5771 32.316 39.5611C32.274 39.5461 32.234 39.5331 32.19 39.5251C32.149 39.5161 32.11 39.5141 32.069 39.5111C32.046 39.5091 32.025 39.4971 32.002 39.4971C31.979 39.4971 31.958 39.5091 31.935 39.5111C31.894 39.5141 31.855 39.5161 31.813 39.5251C31.77 39.5331 31.73 39.5461 31.688 39.5611C31.64 39.5771 31.596 39.5951 31.551 39.6181C31.53 39.6291 31.508 39.6291 31.488 39.6401C31.475 39.6481 31.468 39.6611 31.456 39.6691C31.422 39.6911 31.393 39.7191 31.362 39.7451C31.321 39.7801 31.285 39.8151 31.251 39.8561C31.225 39.8871 31.197 39.9161 31.175 39.9501C31.167 39.9631 31.154 39.9701 31.146 39.9821L25.145 49.9861C25.13 50.0091 25.13 50.0371 25.119 50.0611C25.088 50.1221 25.069 50.1841 25.052 50.2501C25.035 50.3121 25.021 50.3711 25.017 50.4341C25.012 50.4961 25.019 50.5551 25.027 50.6171C25.035 50.6871 25.047 50.7531 25.069 50.8191C25.078 50.8441 25.074 50.8701 25.085 50.8941L27.543 56.6301C27.223 56.7981 27 57.1201 27 57.5031V61.5031C27 62.0561 27.447 62.5031 28 62.5031H36C36.553 62.5031 37 62.0561 37 61.5031V57.5031C37 57.1201 36.777 56.7981 36.462 56.6301L38.92 50.8941C38.931 50.8701 38.927 50.8441 38.936 50.8191C38.958 50.7531 38.97 50.6871 38.978 50.6171C38.985 50.5551 38.992 50.4951 38.987 50.4341ZM29.659 56.5031L27.119 50.5761L31 44.1071V51.4981C31 52.0511 31.447 52.4981 32 52.4981C32.553 52.4981 33 52.0511 33 51.4981V44.1071L36.881 50.5761L34.341 56.5031H29.659ZM35 60.5031H29V58.5031H35V60.5031Z" fill="#FFA748"/>
</g>
<defs>
<clipPath id="clip0">
<rect width="64" height="64" fill="white"/>
</clipPath>
</defs>
</svg>
