<svg width="283" height="265" viewBox="0 0 283 265" fill="none" xmlns="http://www.w3.org/2000/svg">
<path d="M282.075 243.048L272.725 207.897C272.514 207.106 272.073 206.394 271.458 205.853C270.842 205.312 270.081 204.966 269.269 204.857C268.457 204.749 267.631 204.883 266.895 205.244C266.159 205.605 265.547 206.176 265.136 206.884L254.308 225.564L227.242 209.703V117.641C227.237 117.419 227.215 117.197 227.176 116.978C227.207 116.811 227.229 116.642 227.242 116.472C227.243 115.749 227.054 115.038 226.694 114.411C226.334 113.784 225.816 113.262 225.192 112.897L145.643 66.2945V34.9884H167.219C168.039 34.9875 168.839 34.7438 169.52 34.2881C170.2 33.8325 170.731 33.1852 171.044 32.4282C171.356 31.6712 171.438 30.8384 171.278 30.0352C171.117 29.2319 170.722 28.4942 170.143 27.9153L144.428 2.19576C143.651 1.41951 142.598 0.983459 141.5 0.983459C140.402 0.983459 139.349 1.41951 138.572 2.19576L112.857 27.9153C112.277 28.4945 111.882 29.2326 111.722 30.0363C111.562 30.84 111.644 31.6732 111.957 32.4304C112.271 33.1876 112.802 33.8348 113.483 34.2901C114.165 34.7455 114.966 34.9885 115.785 34.9884H137.357V66.2945L57.8081 112.897C57.1841 113.262 56.6665 113.784 56.3068 114.411C55.9472 115.038 55.758 115.749 55.7581 116.472C55.7703 116.642 55.7933 116.811 55.8268 116.978C55.7857 117.197 55.7628 117.419 55.7581 117.641V209.699L28.6941 225.559L17.8642 206.877C17.4527 206.169 16.8406 205.598 16.105 205.237C15.3694 204.876 14.5434 204.742 13.7314 204.85C12.9193 204.959 12.1576 205.305 11.5424 205.846C10.9272 206.387 10.4862 207.099 10.275 207.89L0.924577 243.048C0.642834 244.11 0.794213 245.241 1.34546 246.191C1.89672 247.142 2.80277 247.835 3.86462 248.118L39.0174 257.469C39.809 257.679 40.6452 257.649 41.4203 257.384C42.1953 257.119 42.8744 256.631 43.3717 255.98C43.869 255.329 44.1622 254.545 44.2143 253.728C44.2663 252.91 44.0749 252.096 43.6641 251.387L32.8461 232.722L59.8983 216.874L139.403 263.448C139.45 263.476 139.504 263.486 139.552 263.512C139.779 263.633 140.017 263.733 140.262 263.81C140.345 263.836 140.425 263.867 140.511 263.888C141.154 264.062 141.832 264.062 142.475 263.888C142.56 263.867 142.641 263.836 142.712 263.81C142.957 263.733 143.195 263.633 143.422 263.512C143.469 263.486 143.524 263.476 143.571 263.448L223.099 216.874L250.152 232.734L239.336 251.39C238.971 252.019 238.778 252.734 238.777 253.462C238.776 254.19 238.966 254.905 239.33 255.536C239.693 256.167 240.216 256.69 240.847 257.055C241.477 257.419 242.192 257.611 242.92 257.611C243.279 257.61 243.637 257.563 243.985 257.471L279.138 248.121C280.2 247.837 281.106 247.143 281.656 246.192C282.207 245.241 282.358 244.11 282.075 243.048ZM141.5 10.9828L157.22 26.7032H125.78L141.5 10.9828ZM9.99801 241.168L15.7124 219.686L31.4802 246.882L9.99801 241.168ZM141.5 73.4694L214.904 116.472L141.5 159.472L68.0983 116.472L141.5 73.4694ZM64.0433 123.699L137.357 166.647V252.647L64.0433 209.699V123.699ZM145.643 252.647V166.647L218.957 123.699V209.699L145.643 252.647ZM251.52 246.882L267.288 219.686L273.004 241.168L251.52 246.882Z" fill="#3191F9"/>
</svg>
